<mxfile host="app.diagrams.net" modified="2025-07-26T10:00:00.000Z" agent="Network Security Architecture" etag="v1.0" version="24.7.6">
  <diagram name="Network & Security Architecture" id="network-security">
    <mxGraphModel dx="2000" dy="1200" grid="1" gridSize="10" guides="1" tooltips="1" connect="1" arrows="1" fold="1" page="1" pageScale="1" pageWidth="1654" pageHeight="1169" background="#ffffff">
      <root>
        <mxCell id="0"/>
        <mxCell id="1" parent="0"/>
        
        <!-- Title -->
        <mxCell id="title" value="Vehicle Tracking System - Network &amp; Security Architecture" style="text;html=1;strokeColor=none;fillColor=none;align=center;verticalAlign=middle;whiteSpace=wrap;rounded=0;fontSize=18;fontStyle=1;fontColor=#232F3E;" vertex="1" parent="1">
          <mxGeometry x="500" y="20" width="600" height="30" as="geometry"/>
        </mxCell>
        
        <!-- Internet -->
        <mxCell id="internet" value="Internet" style="ellipse;shape=cloud;whiteSpace=wrap;html=1;fillColor=#E1F5FE;strokeColor=#0277BD;fontSize=14;fontStyle=1;" vertex="1" parent="1">
          <mxGeometry x="50" y="80" width="150" height="80" as="geometry"/>
        </mxCell>
        
        <!-- AWS Cloud -->
        <mxCell id="aws-cloud" value="AWS Cloud - us-east-1 Region" style="rounded=1;whiteSpace=wrap;html=1;fillColor=#FFF3E0;strokeColor=#FF6F00;fontSize=16;fontStyle=1;verticalAlign=top;" vertex="1" parent="1">
          <mxGeometry x="280" y="60" width="1300" height="1000" as="geometry"/>
        </mxCell>
        
        <!-- CloudFront -->
        <mxCell id="cloudfront" value="CloudFront Distribution&#xa;Global CDN" style="rounded=1;whiteSpace=wrap;html=1;fillColor=#FF9800;strokeColor=#F57C00;fontColor=white;" vertex="1" parent="1">
          <mxGeometry x="320" y="100" width="150" height="60" as="geometry"/>
        </mxCell>
        
        <!-- WAF -->
        <mxCell id="waf" value="AWS WAF&#xa;Web Application Firewall" style="rounded=1;whiteSpace=wrap;html=1;fillColor=#F44336;strokeColor=#D32F2F;fontColor=white;" vertex="1" parent="1">
          <mxGeometry x="320" y="180" width="150" height="60" as="geometry"/>
        </mxCell>
        
        <!-- VPC -->
        <mxCell id="vpc" value="VPC (10.0.0.0/16)" style="rounded=1;whiteSpace=wrap;html=1;fillColor=#E8F5E8;strokeColor=#4CAF50;fontSize=14;fontStyle=1;verticalAlign=top;" vertex="1" parent="1">
          <mxGeometry x="320" y="280" width="1220" height="750" as="geometry"/>
        </mxCell>
        
        <!-- Internet Gateway -->
        <mxCell id="igw" value="Internet Gateway" style="rounded=1;whiteSpace=wrap;html=1;fillColor=#2196F3;strokeColor=#1976D2;fontColor=white;" vertex="1" parent="1">
          <mxGeometry x="520" y="300" width="120" height="50" as="geometry"/>
        </mxCell>
        
        <!-- Public Subnets -->
        <mxCell id="public-subnet-a" value="Public Subnet AZ-A&#xa;(10.0.1.0/24)" style="rounded=1;whiteSpace=wrap;html=1;fillColor=#C8E6C9;strokeColor=#4CAF50;fontSize=12;fontStyle=1;verticalAlign=top;" vertex="1" parent="1">
          <mxGeometry x="360" y="380" width="250" height="200" as="geometry"/>
        </mxCell>
        
        <mxCell id="public-subnet-b" value="Public Subnet AZ-B&#xa;(10.0.2.0/24)" style="rounded=1;whiteSpace=wrap;html=1;fillColor=#C8E6C9;strokeColor=#4CAF50;fontSize=12;fontStyle=1;verticalAlign=top;" vertex="1" parent="1">
          <mxGeometry x="640" y="380" width="250" height="200" as="geometry"/>
        </mxCell>
        
        <!-- NAT Gateways -->
        <mxCell id="nat-gw-a" value="NAT Gateway A" style="rounded=1;whiteSpace=wrap;html=1;fillColor=#FF9800;strokeColor=#F57C00;fontColor=white;" vertex="1" parent="1">
          <mxGeometry x="400" y="420" width="100" height="40" as="geometry"/>
        </mxCell>
        
        <mxCell id="nat-gw-b" value="NAT Gateway B" style="rounded=1;whiteSpace=wrap;html=1;fillColor=#FF9800;strokeColor=#F57C00;fontColor=white;" vertex="1" parent="1">
          <mxGeometry x="680" y="420" width="100" height="40" as="geometry"/>
        </mxCell>
        
        <!-- Application Load Balancer -->
        <mxCell id="alb" value="Application&#xa;Load Balancer" style="rounded=1;whiteSpace=wrap;html=1;fillColor=#9C27B0;strokeColor=#7B1FA2;fontColor=white;" vertex="1" parent="1">
          <mxGeometry x="520" y="500" width="120" height="60" as="geometry"/>
        </mxCell>
        
        <!-- Private Subnets -->
        <mxCell id="private-subnet-a" value="Private Subnet AZ-A&#xa;(10.0.3.0/24)" style="rounded=1;whiteSpace=wrap;html=1;fillColor=#BBDEFB;strokeColor=#2196F3;fontSize=12;fontStyle=1;verticalAlign=top;" vertex="1" parent="1">
          <mxGeometry x="360" y="620" width="250" height="180" as="geometry"/>
        </mxCell>
        
        <mxCell id="private-subnet-b" value="Private Subnet AZ-B&#xa;(10.0.4.0/24)" style="rounded=1;whiteSpace=wrap;html=1;fillColor=#BBDEFB;strokeColor=#2196F3;fontSize=12;fontStyle=1;verticalAlign=top;" vertex="1" parent="1">
          <mxGeometry x="640" y="620" width="250" height="180" as="geometry"/>
        </mxCell>
        
        <!-- Lambda Functions in Private Subnets -->
        <mxCell id="lambda-group-a" value="Lambda Functions" style="rounded=1;whiteSpace=wrap;html=1;fillColor=#FFCDD2;strokeColor=#F44336;fontSize=11;fontStyle=1;verticalAlign=top;" vertex="1" parent="1">
          <mxGeometry x="380" y="650" width="210" height="120" as="geometry"/>
        </mxCell>
        
        <mxCell id="lambda1" value="Vehicle Mgmt" style="rounded=1;whiteSpace=wrap;html=1;fillColor=#FF5722;strokeColor=#D84315;fontColor=white;fontSize=10;" vertex="1" parent="1">
          <mxGeometry x="390" y="680" width="80" height="30" as="geometry"/>
        </mxCell>
        
        <mxCell id="lambda2" value="Telemetry API" style="rounded=1;whiteSpace=wrap;html=1;fillColor=#FF5722;strokeColor=#D84315;fontColor=white;fontSize=10;" vertex="1" parent="1">
          <mxGeometry x="480" y="680" width="80" height="30" as="geometry"/>
        </mxCell>
        
        <mxCell id="lambda3" value="Sales APIs" style="rounded=1;whiteSpace=wrap;html=1;fillColor=#4CAF50;strokeColor=#2E7D32;fontColor=white;fontSize=10;" vertex="1" parent="1">
          <mxGeometry x="390" y="720" width="80" height="30" as="geometry"/>
        </mxCell>
        
        <mxCell id="lambda4" value="Fleet Dashboard" style="rounded=1;whiteSpace=wrap;html=1;fillColor=#FF5722;strokeColor=#D84315;fontColor=white;fontSize=10;" vertex="1" parent="1">
          <mxGeometry x="480" y="720" width="80" height="30" as="geometry"/>
        </mxCell>
        
        <!-- Database Subnet -->
        <mxCell id="db-subnet-a" value="Database Subnet AZ-A&#xa;(10.0.5.0/24)" style="rounded=1;whiteSpace=wrap;html=1;fillColor=#F3E5F5;strokeColor=#9C27B0;fontSize=12;fontStyle=1;verticalAlign=top;" vertex="1" parent="1">
          <mxGeometry x="360" y="820" width="250" height="180" as="geometry"/>
        </mxCell>
        
        <mxCell id="db-subnet-b" value="Database Subnet AZ-B&#xa;(10.0.6.0/24)" style="rounded=1;whiteSpace=wrap;html=1;fillColor=#F3E5F5;strokeColor=#9C27B0;fontSize=12;fontStyle=1;verticalAlign=top;" vertex="1" parent="1">
          <mxGeometry x="640" y="820" width="250" height="180" as="geometry"/>
        </mxCell>
        
        <!-- ElastiCache -->
        <mxCell id="elasticache-a" value="ElastiCache&#xa;Redis Primary" style="rounded=1;whiteSpace=wrap;html=1;fillColor=#FF5722;strokeColor=#D84315;fontColor=white;" vertex="1" parent="1">
          <mxGeometry x="380" y="860" width="100" height="50" as="geometry"/>
        </mxCell>
        
        <mxCell id="elasticache-b" value="ElastiCache&#xa;Redis Replica" style="rounded=1;whiteSpace=wrap;html=1;fillColor=#FF5722;strokeColor=#D84315;fontColor=white;" vertex="1" parent="1">
          <mxGeometry x="660" y="860" width="100" height="50" as="geometry"/>
        </mxCell>
        
        <!-- Managed Services (Outside VPC) -->
        <mxCell id="managed-services" value="AWS Managed Services" style="rounded=1;whiteSpace=wrap;html=1;fillColor=#FFF8E1;strokeColor=#FFC107;fontSize=14;fontStyle=1;verticalAlign=top;" vertex="1" parent="1">
          <mxGeometry x="950" y="300" width="550" height="700" as="geometry"/>
        </mxCell>
        
        <!-- DynamoDB -->
        <mxCell id="dynamodb" value="DynamoDB Tables&#xa;(13 tables)" style="rounded=1;whiteSpace=wrap;html=1;fillColor=#2196F3;strokeColor=#1976D2;fontColor=white;" vertex="1" parent="1">
          <mxGeometry x="980" y="340" width="120" height="60" as="geometry"/>
        </mxCell>
        
        <!-- S3 -->
        <mxCell id="s3" value="S3 Buckets&#xa;(6 buckets)" style="rounded=1;whiteSpace=wrap;html=1;fillColor=#4CAF50;strokeColor=#2E7D32;fontColor=white;" vertex="1" parent="1">
          <mxGeometry x="1120" y="340" width="120" height="60" as="geometry"/>
        </mxCell>
        
        <!-- API Gateway -->
        <mxCell id="api-gateway" value="API Gateway&#xa;REST API" style="rounded=1;whiteSpace=wrap;html=1;fillColor=#9C27B0;strokeColor=#7B1FA2;fontColor=white;" vertex="1" parent="1">
          <mxGeometry x="980" y="420" width="120" height="60" as="geometry"/>
        </mxCell>
        
        <!-- Cognito -->
        <mxCell id="cognito" value="Cognito&#xa;User Pools" style="rounded=1;whiteSpace=wrap;html=1;fillColor=#FF9800;strokeColor=#F57C00;fontColor=white;" vertex="1" parent="1">
          <mxGeometry x="1120" y="420" width="120" height="60" as="geometry"/>
        </mxCell>
        
        <!-- IoT Core -->
        <mxCell id="iot-core" value="IoT Core&#xa;MQTT Broker" style="rounded=1;whiteSpace=wrap;html=1;fillColor=#607D8B;strokeColor=#455A64;fontColor=white;" vertex="1" parent="1">
          <mxGeometry x="980" y="500" width="120" height="60" as="geometry"/>
        </mxCell>
        
        <!-- Kinesis -->
        <mxCell id="kinesis" value="Kinesis&#xa;Data Streams" style="rounded=1;whiteSpace=wrap;html=1;fillColor=#E91E63;strokeColor=#C2185B;fontColor=white;" vertex="1" parent="1">
          <mxGeometry x="1120" y="500" width="120" height="60" as="geometry"/>
        </mxCell>
        
        <!-- SNS -->
        <mxCell id="sns" value="SNS Topics&#xa;Notifications" style="rounded=1;whiteSpace=wrap;html=1;fillColor=#9C27B0;strokeColor=#7B1FA2;fontColor=white;" vertex="1" parent="1">
          <mxGeometry x="980" y="580" width="120" height="60" as="geometry"/>
        </mxCell>
        
        <!-- CloudWatch -->
        <mxCell id="cloudwatch" value="CloudWatch&#xa;Monitoring" style="rounded=1;whiteSpace=wrap;html=1;fillColor=#F44336;strokeColor=#D32F2F;fontColor=white;" vertex="1" parent="1">
          <mxGeometry x="1120" y="580" width="120" height="60" as="geometry"/>
        </mxCell>
        
        <!-- Rekognition -->
        <mxCell id="rekognition" value="Rekognition&#xa;AI Analysis" style="rounded=1;whiteSpace=wrap;html=1;fillColor=#FF9800;strokeColor=#F57C00;fontColor=white;" vertex="1" parent="1">
          <mxGeometry x="980" y="660" width="120" height="60" as="geometry"/>
        </mxCell>
        
        <!-- Security Groups -->
        <mxCell id="security-groups" value="🔒 Security Groups &amp; NACLs" style="rounded=1;whiteSpace=wrap;html=1;fillColor=#FFEBEE;strokeColor=#F44336;fontSize=14;fontStyle=1;verticalAlign=top;" vertex="1" parent="1">
          <mxGeometry x="1280" y="340" width="200" height="300" as="geometry"/>
        </mxCell>
        
        <mxCell id="web-sg" value="Web-SG&#xa;Port 80,443" style="rounded=1;whiteSpace=wrap;html=1;fillColor=#F44336;strokeColor=#D32F2F;fontColor=white;fontSize=11;" vertex="1" parent="1">
          <mxGeometry x="1300" y="380" width="80" height="40" as="geometry"/>
        </mxCell>
        
        <mxCell id="app-sg" value="App-SG&#xa;Port 8080" style="rounded=1;whiteSpace=wrap;html=1;fillColor=#F44336;strokeColor=#D32F2F;fontColor=white;fontSize=11;" vertex="1" parent="1">
          <mxGeometry x="1390" y="380" width="80" height="40" as="geometry"/>
        </mxCell>
        
        <mxCell id="db-sg" value="DB-SG&#xa;Port 6379" style="rounded=1;whiteSpace=wrap;html=1;fillColor=#F44336;strokeColor=#D32F2F;fontColor=white;fontSize=11;" vertex="1" parent="1">
          <mxGeometry x="1300" y="440" width="80" height="40" as="geometry"/>
        </mxCell>
        
        <mxCell id="lambda-sg" value="Lambda-SG&#xa;Outbound only" style="rounded=1;whiteSpace=wrap;html=1;fillColor=#F44336;strokeColor=#D32F2F;fontColor=white;fontSize=11;" vertex="1" parent="1">
          <mxGeometry x="1390" y="440" width="80" height="40" as="geometry"/>
        </mxCell>
        
        <!-- IAM -->
        <mxCell id="iam-section" value="🔐 IAM Roles &amp; Policies" style="rounded=1;whiteSpace=wrap;html=1;fillColor=#E8F5E8;strokeColor=#4CAF50;fontSize=14;fontStyle=1;verticalAlign=top;" vertex="1" parent="1">
          <mxGeometry x="1280" y="680" width="200" height="200" as="geometry"/>
        </mxCell>
        
        <mxCell id="lambda-role" value="Lambda&#xa;Execution Role" style="rounded=1;whiteSpace=wrap;html=1;fillColor=#4CAF50;strokeColor=#2E7D32;fontColor=white;fontSize=11;" vertex="1" parent="1">
          <mxGeometry x="1300" y="720" width="80" height="40" as="geometry"/>
        </mxCell>
        
        <mxCell id="api-role" value="API Gateway&#xa;Role" style="rounded=1;whiteSpace=wrap;html=1;fillColor=#4CAF50;strokeColor=#2E7D32;fontColor=white;fontSize=11;" vertex="1" parent="1">
          <mxGeometry x="1390" y="720" width="80" height="40" as="geometry"/>
        </mxCell>
        
        <mxCell id="iot-role" value="IoT Core&#xa;Role" style="rounded=1;whiteSpace=wrap;html=1;fillColor=#4CAF50;strokeColor=#2E7D32;fontColor=white;fontSize=11;" vertex="1" parent="1">
          <mxGeometry x="1300" y="780" width="80" height="40" as="geometry"/>
        </mxCell>
        
        <mxCell id="sales-role" value="Sales Lambda&#xa;Role" style="rounded=1;whiteSpace=wrap;html=1;fillColor=#4CAF50;strokeColor=#2E7D32;fontColor=white;fontSize=11;" vertex="1" parent="1">
          <mxGeometry x="1390" y="780" width="80" height="40" as="geometry"/>
        </mxCell>
        
        <!-- Network Flow Arrows -->
        <mxCell id="internet-cf" style="edgeStyle=orthogonalEdgeStyle;rounded=0;orthogonalLoop=1;jettySize=auto;html=1;strokeWidth=3;strokeColor=#0277BD;endArrow=block;endFill=1;" edge="1" parent="1" source="internet" target="cloudfront">
          <mxGeometry relative="1" as="geometry"/>
        </mxCell>
        
        <mxCell id="cf-waf" style="edgeStyle=orthogonalEdgeStyle;rounded=0;orthogonalLoop=1;jettySize=auto;html=1;strokeWidth=2;strokeColor=#FF9800;endArrow=block;endFill=1;" edge="1" parent="1" source="cloudfront" target="waf">
          <mxGeometry relative="1" as="geometry"/>
        </mxCell>
        
        <mxCell id="waf-igw" style="edgeStyle=orthogonalEdgeStyle;rounded=0;orthogonalLoop=1;jettySize=auto;html=1;strokeWidth=2;strokeColor=#F44336;endArrow=block;endFill=1;" edge="1" parent="1" source="waf" target="igw">
          <mxGeometry relative="1" as="geometry"/>
        </mxCell>
        
        <mxCell id="igw-alb" style="edgeStyle=orthogonalEdgeStyle;rounded=0;orthogonalLoop=1;jettySize=auto;html=1;strokeWidth=2;strokeColor=#2196F3;endArrow=block;endFill=1;" edge="1" parent="1" source="igw" target="alb">
          <mxGeometry relative="1" as="geometry"/>
        </mxCell>
        
        <mxCell id="alb-lambda" style="edgeStyle=orthogonalEdgeStyle;rounded=0;orthogonalLoop=1;jettySize=auto;html=1;strokeWidth=2;strokeColor=#9C27B0;endArrow=block;endFill=1;" edge="1" parent="1" source="alb" target="lambda1">
          <mxGeometry relative="1" as="geometry"/>
        </mxCell>
        
        <mxCell id="lambda-cache" style="edgeStyle=orthogonalEdgeStyle;rounded=0;orthogonalLoop=1;jettySize=auto;html=1;strokeWidth=2;strokeColor=#FF5722;endArrow=block;endFill=1;" edge="1" parent="1" source="lambda1" target="elasticache-a">
          <mxGeometry relative="1" as="geometry"/>
        </mxCell>
        
        <mxCell id="lambda-ddb" style="edgeStyle=orthogonalEdgeStyle;rounded=0;orthogonalLoop=1;jettySize=auto;html=1;strokeWidth=2;strokeColor=#2196F3;endArrow=block;endFill=1;" edge="1" parent="1" source="lambda3" target="dynamodb">
          <mxGeometry relative="1" as="geometry"/>
        </mxCell>
        
        <!-- Security Labels -->
        <mxCell id="https-label" value="HTTPS/TLS 1.3" style="text;html=1;strokeColor=none;fillColor=none;align=center;verticalAlign=middle;whiteSpace=wrap;rounded=0;fontSize=10;fontColor=#0277BD;fontStyle=2;" vertex="1" parent="1">
          <mxGeometry x="200" y="100" width="80" height="20" as="geometry"/>
        </mxCell>
        
        <mxCell id="waf-label" value="DDoS Protection" style="text;html=1;strokeColor=none;fillColor=none;align=center;verticalAlign=middle;whiteSpace=wrap;rounded=0;fontSize=10;fontColor=#F44336;fontStyle=2;" vertex="1" parent="1">
          <mxGeometry x="480" y="200" width="80" height="20" as="geometry"/>
        </mxCell>
        
        <mxCell id="vpc-label" value="Private Network" style="text;html=1;strokeColor=none;fillColor=none;align=center;verticalAlign=middle;whiteSpace=wrap;rounded=0;fontSize=10;fontColor=#4CAF50;fontStyle=2;" vertex="1" parent="1">
          <mxGeometry x="680" y="300" width="80" height="20" as="geometry"/>
        </mxCell>
        
        <mxCell id="encryption-label" value="Encryption at Rest" style="text;html=1;strokeColor=none;fillColor=none;align=center;verticalAlign=middle;whiteSpace=wrap;rounded=0;fontSize=10;fontColor=#2196F3;fontStyle=2;" vertex="1" parent="1">
          <mxGeometry x="1250" y="360" width="100" height="20" as="geometry"/>
        </mxCell>
        
        <!-- Compliance Info -->
        <mxCell id="compliance" value="🛡️ Compliance &amp; Security Standards&#xa;• SOC 2 Type II Ready&#xa;• GDPR Compliant&#xa;• ISO 27001 Controls&#xa;• PCI DSS Ready&#xa;• HIPAA Compatible" style="rounded=1;whiteSpace=wrap;html=1;fillColor=#E3F2FD;strokeColor=#2196F3;fontSize=12;fontStyle=0;verticalAlign=top;" vertex="1" parent="1">
          <mxGeometry x="50" y="200" width="200" height="120" as="geometry"/>
        </mxCell>
        
        <!-- Network Stats -->
        <mxCell id="network-stats" value="📊 Network Performance&#xa;• Latency: &lt;50ms (CloudFront)&#xa;• Bandwidth: 10 Gbps&#xa;• Availability: 99.99%&#xa;• Global Edge Locations: 400+&#xa;• Auto-scaling: Enabled" style="rounded=1;whiteSpace=wrap;html=1;fillColor=#FFF8E1;strokeColor=#FFC107;fontSize=12;fontStyle=0;verticalAlign=top;" vertex="1" parent="1">
          <mxGeometry x="50" y="340" width="200" height="120" as="geometry"/>
        </mxCell>
        
      </root>
    </mxGraphModel>
  </diagram>
</mxfile>
